# xmcd
#
# Track frame offsets: 
#        150
#        20610
#        36576
#        60393
#        80684
#        97106
#        122757
#        139021
#        159863
#        187229
#
# Disc length: 2842 seconds
#
# Revision: 0
# Processed by: cddbd v1.5.2PL0 Copyright (c) Steve Scherf et al.
# Submitted via: ExactAudioCopy v0.99pb4
#
DISCID=890b180a
DTITLE=Alabama - Alabama and Friends At The Ryman CD2
DYEAR=2014
DGENRE=Country
TTITLE0=Born Country
TTITLE1=All American
TTITLE2=Love In The First Degree (featuring Luke Bryan)
TTITLE3=The Closer You Get (featuring Eli Young Band)
TTITLE4=High Cotton
TTITLE5=Take Me Down
TTITLE6=I'm In A Hurry (And Don't Know Why) (featuring Florida Georgia
TTITLE6=Line)
TTITLE7=That's How I Was Raised
TTITLE8=My Home's In Alabama (featuring Jamey Johnson)
TTITLE9=Mountain Music
EXTD=
EXTT0=
EXTT1=
EXTT2=
EXTT3=
EXTT4=
EXTT5=
EXTT6=
EXTT7=
EXTT8=
EXTT9=
PLAYORDER=
